<?xml version="1.0" encoding="utf-8" standalone="no"?>
<!DOCTYPE svg PUBLIC "-//W3C//DTD SVG 1.1//EN"
  "http://www.w3.org/Graphics/SVG/1.1/DTD/svg11.dtd">
<!-- Created with matplotlib (http://matplotlib.org/) -->
<svg height="216pt" version="1.1" viewBox="0 0 1008 216" width="1008pt" xmlns="http://www.w3.org/2000/svg" xmlns:xlink="http://www.w3.org/1999/xlink">
 <defs>
  <style type="text/css">
*{stroke-linecap:butt;stroke-linejoin:round;}
  </style>
 </defs>
 <g id="figure_1">
  <g id="patch_1">
   <path d="M 0 216 
L 1008 216 
L 1008 0 
L 0 0 
z
" style="fill:none;"/>
  </g>
  <g id="axes_1">
   <g id="patch_2">
    <path d="M 126 189 
L 907.2 189 
L 907.2 25.92 
L 126 25.92 
z
" style="fill:none;"/>
   </g>
   <g id="matplotlib.axis_1">
    <g id="xtick_1">
     <g id="line2d_1">
      <path clip-path="url(#p037523410c)" d="M 161.509091 189 
L 161.509091 25.92 
" style="fill:none;stroke:#b0b0b0;stroke-linecap:square;stroke-width:0.8;"/>
     </g>
     <g id="line2d_2">
      <defs>
       <path d="M 0 0 
L 0 3.5 
" id="m880009151d" style="stroke:#000000;stroke-width:0.8;"/>
      </defs>
      <g>
       <use style="stroke:#000000;stroke-width:0.8;" x="161.509091" xlink:href="#m880009151d" y="189"/>
      </g>
     </g>
     <g id="text_1">
      <!-- 0 -->
      <defs>
       <path d="M 31.78125 66.40625 
Q 24.171875 66.40625 20.328125 58.90625 
Q 16.5 51.421875 16.5 36.375 
Q 16.5 21.390625 20.328125 13.890625 
Q 24.171875 6.390625 31.78125 6.390625 
Q 39.453125 6.390625 43.28125 13.890625 
Q 47.125 21.390625 47.125 36.375 
Q 47.125 51.421875 43.28125 58.90625 
Q 39.453125 66.40625 31.78125 66.40625 
z
M 31.78125 74.21875 
Q 44.046875 74.21875 50.515625 64.515625 
Q 56.984375 54.828125 56.984375 36.375 
Q 56.984375 17.96875 50.515625 8.265625 
Q 44.046875 -1.421875 31.78125 -1.421875 
Q 19.53125 -1.421875 13.0625 8.265625 
Q 6.59375 17.96875 6.59375 36.375 
Q 6.59375 54.828125 13.0625 64.515625 
Q 19.53125 74.21875 31.78125 74.21875 
z
" id="DejaVuSans-30"/>
      </defs>
      <g transform="translate(158.327841 203.598437)scale(0.1 -0.1)">
       <use xlink:href="#DejaVuSans-30"/>
      </g>
     </g>
    </g>
    <g id="xtick_2">
     <g id="line2d_3">
      <path clip-path="url(#p037523410c)" d="M 304.980165 189 
L 304.980165 25.92 
" style="fill:none;stroke:#b0b0b0;stroke-linecap:square;stroke-width:0.8;"/>
     </g>
     <g id="line2d_4">
      <g>
       <use style="stroke:#000000;stroke-width:0.8;" x="304.980165" xlink:href="#m880009151d" y="189"/>
      </g>
     </g>
     <g id="text_2">
      <!-- 20 -->
      <defs>
       <path d="M 19.1875 8.296875 
L 53.609375 8.296875 
L 53.609375 0 
L 7.328125 0 
L 7.328125 8.296875 
Q 12.9375 14.109375 22.625 23.890625 
Q 32.328125 33.6875 34.8125 36.53125 
Q 39.546875 41.84375 41.421875 45.53125 
Q 43.3125 49.21875 43.3125 52.78125 
Q 43.3125 58.59375 39.234375 62.25 
Q 35.15625 65.921875 28.609375 65.921875 
Q 23.96875 65.921875 18.8125 64.3125 
Q 13.671875 62.703125 7.8125 59.421875 
L 7.8125 69.390625 
Q 13.765625 71.78125 18.9375 73 
Q 24.125 74.21875 28.421875 74.21875 
Q 39.75 74.21875 46.484375 68.546875 
Q 53.21875 62.890625 53.21875 53.421875 
Q 53.21875 48.921875 51.53125 44.890625 
Q 49.859375 40.875 45.40625 35.40625 
Q 44.1875 33.984375 37.640625 27.21875 
Q 31.109375 20.453125 19.1875 8.296875 
z
" id="DejaVuSans-32"/>
      </defs>
      <g transform="translate(298.617665 203.598437)scale(0.1 -0.1)">
       <use xlink:href="#DejaVuSans-32"/>
       <use x="63.623047" xlink:href="#DejaVuSans-30"/>
      </g>
     </g>
    </g>
    <g id="xtick_3">
     <g id="line2d_5">
      <path clip-path="url(#p037523410c)" d="M 448.45124 189 
L 448.45124 25.92 
" style="fill:none;stroke:#b0b0b0;stroke-linecap:square;stroke-width:0.8;"/>
     </g>
     <g id="line2d_6">
      <g>
       <use style="stroke:#000000;stroke-width:0.8;" x="448.45124" xlink:href="#m880009151d" y="189"/>
      </g>
     </g>
     <g id="text_3">
      <!-- 40 -->
      <defs>
       <path d="M 37.796875 64.3125 
L 12.890625 25.390625 
L 37.796875 25.390625 
z
M 35.203125 72.90625 
L 47.609375 72.90625 
L 47.609375 25.390625 
L 58.015625 25.390625 
L 58.015625 17.1875 
L 47.609375 17.1875 
L 47.609375 0 
L 37.796875 0 
L 37.796875 17.1875 
L 4.890625 17.1875 
L 4.890625 26.703125 
z
" id="DejaVuSans-34"/>
      </defs>
      <g transform="translate(442.08874 203.598437)scale(0.1 -0.1)">
       <use xlink:href="#DejaVuSans-34"/>
       <use x="63.623047" xlink:href="#DejaVuSans-30"/>
      </g>
     </g>
    </g>
    <g id="xtick_4">
     <g id="line2d_7">
      <path clip-path="url(#p037523410c)" d="M 591.922314 189 
L 591.922314 25.92 
" style="fill:none;stroke:#b0b0b0;stroke-linecap:square;stroke-width:0.8;"/>
     </g>
     <g id="line2d_8">
      <g>
       <use style="stroke:#000000;stroke-width:0.8;" x="591.922314" xlink:href="#m880009151d" y="189"/>
      </g>
     </g>
     <g id="text_4">
      <!-- 60 -->
      <defs>
       <path d="M 33.015625 40.375 
Q 26.375 40.375 22.484375 35.828125 
Q 18.609375 31.296875 18.609375 23.390625 
Q 18.609375 15.53125 22.484375 10.953125 
Q 26.375 6.390625 33.015625 6.390625 
Q 39.65625 6.390625 43.53125 10.953125 
Q 47.40625 15.53125 47.40625 23.390625 
Q 47.40625 31.296875 43.53125 35.828125 
Q 39.65625 40.375 33.015625 40.375 
z
M 52.59375 71.296875 
L 52.59375 62.3125 
Q 48.875 64.0625 45.09375 64.984375 
Q 41.3125 65.921875 37.59375 65.921875 
Q 27.828125 65.921875 22.671875 59.328125 
Q 17.53125 52.734375 16.796875 39.40625 
Q 19.671875 43.65625 24.015625 45.921875 
Q 28.375 48.1875 33.59375 48.1875 
Q 44.578125 48.1875 50.953125 41.515625 
Q 57.328125 34.859375 57.328125 23.390625 
Q 57.328125 12.15625 50.6875 5.359375 
Q 44.046875 -1.421875 33.015625 -1.421875 
Q 20.359375 -1.421875 13.671875 8.265625 
Q 6.984375 17.96875 6.984375 36.375 
Q 6.984375 53.65625 15.1875 63.9375 
Q 23.390625 74.21875 37.203125 74.21875 
Q 40.921875 74.21875 44.703125 73.484375 
Q 48.484375 72.75 52.59375 71.296875 
z
" id="DejaVuSans-36"/>
      </defs>
      <g transform="translate(585.559814 203.598437)scale(0.1 -0.1)">
       <use xlink:href="#DejaVuSans-36"/>
       <use x="63.623047" xlink:href="#DejaVuSans-30"/>
      </g>
     </g>
    </g>
    <g id="xtick_5">
     <g id="line2d_9">
      <path clip-path="url(#p037523410c)" d="M 735.393388 189 
L 735.393388 25.92 
" style="fill:none;stroke:#b0b0b0;stroke-linecap:square;stroke-width:0.8;"/>
     </g>
     <g id="line2d_10">
      <g>
       <use style="stroke:#000000;stroke-width:0.8;" x="735.393388" xlink:href="#m880009151d" y="189"/>
      </g>
     </g>
     <g id="text_5">
      <!-- 80 -->
      <defs>
       <path d="M 31.78125 34.625 
Q 24.75 34.625 20.71875 30.859375 
Q 16.703125 27.09375 16.703125 20.515625 
Q 16.703125 13.921875 20.71875 10.15625 
Q 24.75 6.390625 31.78125 6.390625 
Q 38.8125 6.390625 42.859375 10.171875 
Q 46.921875 13.96875 46.921875 20.515625 
Q 46.921875 27.09375 42.890625 30.859375 
Q 38.875 34.625 31.78125 34.625 
z
M 21.921875 38.8125 
Q 15.578125 40.375 12.03125 44.71875 
Q 8.5 49.078125 8.5 55.328125 
Q 8.5 64.0625 14.71875 69.140625 
Q 20.953125 74.21875 31.78125 74.21875 
Q 42.671875 74.21875 48.875 69.140625 
Q 55.078125 64.0625 55.078125 55.328125 
Q 55.078125 49.078125 51.53125 44.71875 
Q 48 40.375 41.703125 38.8125 
Q 48.828125 37.15625 52.796875 32.3125 
Q 56.78125 27.484375 56.78125 20.515625 
Q 56.78125 9.90625 50.3125 4.234375 
Q 43.84375 -1.421875 31.78125 -1.421875 
Q 19.734375 -1.421875 13.25 4.234375 
Q 6.78125 9.90625 6.78125 20.515625 
Q 6.78125 27.484375 10.78125 32.3125 
Q 14.796875 37.15625 21.921875 38.8125 
z
M 18.3125 54.390625 
Q 18.3125 48.734375 21.84375 45.5625 
Q 25.390625 42.390625 31.78125 42.390625 
Q 38.140625 42.390625 41.71875 45.5625 
Q 45.3125 48.734375 45.3125 54.390625 
Q 45.3125 60.0625 41.71875 63.234375 
Q 38.140625 66.40625 31.78125 66.40625 
Q 25.390625 66.40625 21.84375 63.234375 
Q 18.3125 60.0625 18.3125 54.390625 
z
" id="DejaVuSans-38"/>
      </defs>
      <g transform="translate(729.030888 203.598437)scale(0.1 -0.1)">
       <use xlink:href="#DejaVuSans-38"/>
       <use x="63.623047" xlink:href="#DejaVuSans-30"/>
      </g>
     </g>
    </g>
    <g id="xtick_6">
     <g id="line2d_11">
      <path clip-path="url(#p037523410c)" d="M 878.864463 189 
L 878.864463 25.92 
" style="fill:none;stroke:#b0b0b0;stroke-linecap:square;stroke-width:0.8;"/>
     </g>
     <g id="line2d_12">
      <g>
       <use style="stroke:#000000;stroke-width:0.8;" x="878.864463" xlink:href="#m880009151d" y="189"/>
      </g>
     </g>
     <g id="text_6">
      <!-- 100 -->
      <defs>
       <path d="M 12.40625 8.296875 
L 28.515625 8.296875 
L 28.515625 63.921875 
L 10.984375 60.40625 
L 10.984375 69.390625 
L 28.421875 72.90625 
L 38.28125 72.90625 
L 38.28125 8.296875 
L 54.390625 8.296875 
L 54.390625 0 
L 12.40625 0 
z
" id="DejaVuSans-31"/>
      </defs>
      <g transform="translate(869.320713 203.598437)scale(0.1 -0.1)">
       <use xlink:href="#DejaVuSans-31"/>
       <use x="63.623047" xlink:href="#DejaVuSans-30"/>
       <use x="127.246094" xlink:href="#DejaVuSans-30"/>
      </g>
     </g>
    </g>
    <g id="text_7">
     <!-- Iteration -->
     <defs>
      <path d="M 9.8125 72.90625 
L 19.671875 72.90625 
L 19.671875 0 
L 9.8125 0 
z
" id="DejaVuSans-49"/>
      <path d="M 18.3125 70.21875 
L 18.3125 54.6875 
L 36.8125 54.6875 
L 36.8125 47.703125 
L 18.3125 47.703125 
L 18.3125 18.015625 
Q 18.3125 11.328125 20.140625 9.421875 
Q 21.96875 7.515625 27.59375 7.515625 
L 36.8125 7.515625 
L 36.8125 0 
L 27.59375 0 
Q 17.1875 0 13.234375 3.875 
Q 9.28125 7.765625 9.28125 18.015625 
L 9.28125 47.703125 
L 2.6875 47.703125 
L 2.6875 54.6875 
L 9.28125 54.6875 
L 9.28125 70.21875 
z
" id="DejaVuSans-74"/>
      <path d="M 56.203125 29.59375 
L 56.203125 25.203125 
L 14.890625 25.203125 
Q 15.484375 15.921875 20.484375 11.0625 
Q 25.484375 6.203125 34.421875 6.203125 
Q 39.59375 6.203125 44.453125 7.46875 
Q 49.3125 8.734375 54.109375 11.28125 
L 54.109375 2.78125 
Q 49.265625 0.734375 44.1875 -0.34375 
Q 39.109375 -1.421875 33.890625 -1.421875 
Q 20.796875 -1.421875 13.15625 6.1875 
Q 5.515625 13.8125 5.515625 26.8125 
Q 5.515625 40.234375 12.765625 48.109375 
Q 20.015625 56 32.328125 56 
Q 43.359375 56 49.78125 48.890625 
Q 56.203125 41.796875 56.203125 29.59375 
z
M 47.21875 32.234375 
Q 47.125 39.59375 43.09375 43.984375 
Q 39.0625 48.390625 32.421875 48.390625 
Q 24.90625 48.390625 20.390625 44.140625 
Q 15.875 39.890625 15.1875 32.171875 
z
" id="DejaVuSans-65"/>
      <path d="M 41.109375 46.296875 
Q 39.59375 47.171875 37.8125 47.578125 
Q 36.03125 48 33.890625 48 
Q 26.265625 48 22.1875 43.046875 
Q 18.109375 38.09375 18.109375 28.8125 
L 18.109375 0 
L 9.078125 0 
L 9.078125 54.6875 
L 18.109375 54.6875 
L 18.109375 46.1875 
Q 20.953125 51.171875 25.484375 53.578125 
Q 30.03125 56 36.53125 56 
Q 37.453125 56 38.578125 55.875 
Q 39.703125 55.765625 41.0625 55.515625 
z
" id="DejaVuSans-72"/>
      <path d="M 34.28125 27.484375 
Q 23.390625 27.484375 19.1875 25 
Q 14.984375 22.515625 14.984375 16.5 
Q 14.984375 11.71875 18.140625 8.90625 
Q 21.296875 6.109375 26.703125 6.109375 
Q 34.1875 6.109375 38.703125 11.40625 
Q 43.21875 16.703125 43.21875 25.484375 
L 43.21875 27.484375 
z
M 52.203125 31.203125 
L 52.203125 0 
L 43.21875 0 
L 43.21875 8.296875 
Q 40.140625 3.328125 35.546875 0.953125 
Q 30.953125 -1.421875 24.3125 -1.421875 
Q 15.921875 -1.421875 10.953125 3.296875 
Q 6 8.015625 6 15.921875 
Q 6 25.140625 12.171875 29.828125 
Q 18.359375 34.515625 30.609375 34.515625 
L 43.21875 34.515625 
L 43.21875 35.40625 
Q 43.21875 41.609375 39.140625 45 
Q 35.0625 48.390625 27.6875 48.390625 
Q 23 48.390625 18.546875 47.265625 
Q 14.109375 46.140625 10.015625 43.890625 
L 10.015625 52.203125 
Q 14.9375 54.109375 19.578125 55.046875 
Q 24.21875 56 28.609375 56 
Q 40.484375 56 46.34375 49.84375 
Q 52.203125 43.703125 52.203125 31.203125 
z
" id="DejaVuSans-61"/>
      <path d="M 9.421875 54.6875 
L 18.40625 54.6875 
L 18.40625 0 
L 9.421875 0 
z
M 9.421875 75.984375 
L 18.40625 75.984375 
L 18.40625 64.59375 
L 9.421875 64.59375 
z
" id="DejaVuSans-69"/>
      <path d="M 30.609375 48.390625 
Q 23.390625 48.390625 19.1875 42.75 
Q 14.984375 37.109375 14.984375 27.296875 
Q 14.984375 17.484375 19.15625 11.84375 
Q 23.34375 6.203125 30.609375 6.203125 
Q 37.796875 6.203125 41.984375 11.859375 
Q 46.1875 17.53125 46.1875 27.296875 
Q 46.1875 37.015625 41.984375 42.703125 
Q 37.796875 48.390625 30.609375 48.390625 
z
M 30.609375 56 
Q 42.328125 56 49.015625 48.375 
Q 55.71875 40.765625 55.71875 27.296875 
Q 55.71875 13.875 49.015625 6.21875 
Q 42.328125 -1.421875 30.609375 -1.421875 
Q 18.84375 -1.421875 12.171875 6.21875 
Q 5.515625 13.875 5.515625 27.296875 
Q 5.515625 40.765625 12.171875 48.375 
Q 18.84375 56 30.609375 56 
z
" id="DejaVuSans-6f"/>
      <path d="M 54.890625 33.015625 
L 54.890625 0 
L 45.90625 0 
L 45.90625 32.71875 
Q 45.90625 40.484375 42.875 44.328125 
Q 39.84375 48.1875 33.796875 48.1875 
Q 26.515625 48.1875 22.3125 43.546875 
Q 18.109375 38.921875 18.109375 30.90625 
L 18.109375 0 
L 9.078125 0 
L 9.078125 54.6875 
L 18.109375 54.6875 
L 18.109375 46.1875 
Q 21.34375 51.125 25.703125 53.5625 
Q 30.078125 56 35.796875 56 
Q 45.21875 56 50.046875 50.171875 
Q 54.890625 44.34375 54.890625 33.015625 
z
" id="DejaVuSans-6e"/>
     </defs>
     <g transform="translate(495.391406 217.276563)scale(0.1 -0.1)">
      <use xlink:href="#DejaVuSans-49"/>
      <use x="29.492188" xlink:href="#DejaVuSans-74"/>
      <use x="68.701172" xlink:href="#DejaVuSans-65"/>
      <use x="130.224609" xlink:href="#DejaVuSans-72"/>
      <use x="171.337891" xlink:href="#DejaVuSans-61"/>
      <use x="232.617188" xlink:href="#DejaVuSans-74"/>
      <use x="271.826172" xlink:href="#DejaVuSans-69"/>
      <use x="299.609375" xlink:href="#DejaVuSans-6f"/>
      <use x="360.791016" xlink:href="#DejaVuSans-6e"/>
     </g>
    </g>
   </g>
   <g id="matplotlib.axis_2">
    <g id="ytick_1">
     <g id="line2d_13">
      <path clip-path="url(#p037523410c)" d="M 126 181.588083 
L 907.2 181.588083 
" style="fill:none;stroke:#b0b0b0;stroke-linecap:square;stroke-width:0.8;"/>
     </g>
     <g id="line2d_14">
      <defs>
       <path d="M 0 0 
L -3.5 0 
" id="m8a3b3b8985" style="stroke:#000000;stroke-width:0.8;"/>
      </defs>
      <g>
       <use style="stroke:#000000;stroke-width:0.8;" x="126" xlink:href="#m8a3b3b8985" y="181.588083"/>
      </g>
     </g>
     <g id="text_8">
      <!-- 0 -->
      <g transform="translate(112.6375 185.387301)scale(0.1 -0.1)">
       <use xlink:href="#DejaVuSans-30"/>
      </g>
     </g>
    </g>
    <g id="ytick_2">
     <g id="line2d_15">
      <path clip-path="url(#p037523410c)" d="M 126 158.024012 
L 907.2 158.024012 
" style="fill:none;stroke:#b0b0b0;stroke-linecap:square;stroke-width:0.8;"/>
     </g>
     <g id="line2d_16">
      <g>
       <use style="stroke:#000000;stroke-width:0.8;" x="126" xlink:href="#m8a3b3b8985" y="158.024012"/>
      </g>
     </g>
     <g id="text_9">
      <!-- 200 -->
      <g transform="translate(99.9125 161.82323)scale(0.1 -0.1)">
       <use xlink:href="#DejaVuSans-32"/>
       <use x="63.623047" xlink:href="#DejaVuSans-30"/>
       <use x="127.246094" xlink:href="#DejaVuSans-30"/>
      </g>
     </g>
    </g>
    <g id="ytick_3">
     <g id="line2d_17">
      <path clip-path="url(#p037523410c)" d="M 126 134.459941 
L 907.2 134.459941 
" style="fill:none;stroke:#b0b0b0;stroke-linecap:square;stroke-width:0.8;"/>
     </g>
     <g id="line2d_18">
      <g>
       <use style="stroke:#000000;stroke-width:0.8;" x="126" xlink:href="#m8a3b3b8985" y="134.459941"/>
      </g>
     </g>
     <g id="text_10">
      <!-- 400 -->
      <g transform="translate(99.9125 138.25916)scale(0.1 -0.1)">
       <use xlink:href="#DejaVuSans-34"/>
       <use x="63.623047" xlink:href="#DejaVuSans-30"/>
       <use x="127.246094" xlink:href="#DejaVuSans-30"/>
      </g>
     </g>
    </g>
    <g id="ytick_4">
     <g id="line2d_19">
      <path clip-path="url(#p037523410c)" d="M 126 110.89587 
L 907.2 110.89587 
" style="fill:none;stroke:#b0b0b0;stroke-linecap:square;stroke-width:0.8;"/>
     </g>
     <g id="line2d_20">
      <g>
       <use style="stroke:#000000;stroke-width:0.8;" x="126" xlink:href="#m8a3b3b8985" y="110.89587"/>
      </g>
     </g>
     <g id="text_11">
      <!-- 600 -->
      <g transform="translate(99.9125 114.695089)scale(0.1 -0.1)">
       <use xlink:href="#DejaVuSans-36"/>
       <use x="63.623047" xlink:href="#DejaVuSans-30"/>
       <use x="127.246094" xlink:href="#DejaVuSans-30"/>
      </g>
     </g>
    </g>
    <g id="ytick_5">
     <g id="line2d_21">
      <path clip-path="url(#p037523410c)" d="M 126 87.331799 
L 907.2 87.331799 
" style="fill:none;stroke:#b0b0b0;stroke-linecap:square;stroke-width:0.8;"/>
     </g>
     <g id="line2d_22">
      <g>
       <use style="stroke:#000000;stroke-width:0.8;" x="126" xlink:href="#m8a3b3b8985" y="87.331799"/>
      </g>
     </g>
     <g id="text_12">
      <!-- 800 -->
      <g transform="translate(99.9125 91.131018)scale(0.1 -0.1)">
       <use xlink:href="#DejaVuSans-38"/>
       <use x="63.623047" xlink:href="#DejaVuSans-30"/>
       <use x="127.246094" xlink:href="#DejaVuSans-30"/>
      </g>
     </g>
    </g>
    <g id="ytick_6">
     <g id="line2d_23">
      <path clip-path="url(#p037523410c)" d="M 126 63.767728 
L 907.2 63.767728 
" style="fill:none;stroke:#b0b0b0;stroke-linecap:square;stroke-width:0.8;"/>
     </g>
     <g id="line2d_24">
      <g>
       <use style="stroke:#000000;stroke-width:0.8;" x="126" xlink:href="#m8a3b3b8985" y="63.767728"/>
      </g>
     </g>
     <g id="text_13">
      <!-- 1000 -->
      <g transform="translate(93.55 67.566947)scale(0.1 -0.1)">
       <use xlink:href="#DejaVuSans-31"/>
       <use x="63.623047" xlink:href="#DejaVuSans-30"/>
       <use x="127.246094" xlink:href="#DejaVuSans-30"/>
       <use x="190.869141" xlink:href="#DejaVuSans-30"/>
      </g>
     </g>
    </g>
    <g id="ytick_7">
     <g id="line2d_25">
      <path clip-path="url(#p037523410c)" d="M 126 40.203657 
L 907.2 40.203657 
" style="fill:none;stroke:#b0b0b0;stroke-linecap:square;stroke-width:0.8;"/>
     </g>
     <g id="line2d_26">
      <g>
       <use style="stroke:#000000;stroke-width:0.8;" x="126" xlink:href="#m8a3b3b8985" y="40.203657"/>
      </g>
     </g>
     <g id="text_14">
      <!-- 1200 -->
      <g transform="translate(93.55 44.002876)scale(0.1 -0.1)">
       <use xlink:href="#DejaVuSans-31"/>
       <use x="63.623047" xlink:href="#DejaVuSans-32"/>
       <use x="127.246094" xlink:href="#DejaVuSans-30"/>
       <use x="190.869141" xlink:href="#DejaVuSans-30"/>
      </g>
     </g>
    </g>
    <g id="text_15">
     <!-- Loss -->
     <defs>
      <path d="M 9.8125 72.90625 
L 19.671875 72.90625 
L 19.671875 8.296875 
L 55.171875 8.296875 
L 55.171875 0 
L 9.8125 0 
z
" id="DejaVuSans-4c"/>
      <path d="M 44.28125 53.078125 
L 44.28125 44.578125 
Q 40.484375 46.53125 36.375 47.5 
Q 32.28125 48.484375 27.875 48.484375 
Q 21.1875 48.484375 17.84375 46.4375 
Q 14.5 44.390625 14.5 40.28125 
Q 14.5 37.15625 16.890625 35.375 
Q 19.28125 33.59375 26.515625 31.984375 
L 29.59375 31.296875 
Q 39.15625 29.25 43.1875 25.515625 
Q 47.21875 21.78125 47.21875 15.09375 
Q 47.21875 7.46875 41.1875 3.015625 
Q 35.15625 -1.421875 24.609375 -1.421875 
Q 20.21875 -1.421875 15.453125 -0.5625 
Q 10.6875 0.296875 5.421875 2 
L 5.421875 11.28125 
Q 10.40625 8.6875 15.234375 7.390625 
Q 20.0625 6.109375 24.8125 6.109375 
Q 31.15625 6.109375 34.5625 8.28125 
Q 37.984375 10.453125 37.984375 14.40625 
Q 37.984375 18.0625 35.515625 20.015625 
Q 33.0625 21.96875 24.703125 23.78125 
L 21.578125 24.515625 
Q 13.234375 26.265625 9.515625 29.90625 
Q 5.8125 33.546875 5.8125 39.890625 
Q 5.8125 47.609375 11.28125 51.796875 
Q 16.75 56 26.8125 56 
Q 31.78125 56 36.171875 55.265625 
Q 40.578125 54.546875 44.28125 53.078125 
z
" id="DejaVuSans-73"/>
     </defs>
     <g transform="translate(87.470312 118.513906)rotate(-90)scale(0.1 -0.1)">
      <use xlink:href="#DejaVuSans-4c"/>
      <use x="55.697266" xlink:href="#DejaVuSans-6f"/>
      <use x="116.878906" xlink:href="#DejaVuSans-73"/>
      <use x="168.978516" xlink:href="#DejaVuSans-73"/>
     </g>
    </g>
   </g>
   <g id="line2d_27">
    <path clip-path="url(#p037523410c)" d="M 161.509091 131.552402 
L 168.682645 131.552402 
L 175.856198 131.552402 
L 183.029752 131.552402 
L 190.203306 131.552402 
L 197.37686 131.552402 
L 204.550413 131.552402 
L 211.723967 142.801281 
L 218.897521 152.472968 
L 226.071074 152.472968 
L 233.244628 152.472968 
L 240.418182 152.472968 
L 247.591736 152.472968 
L 254.765289 152.472968 
L 261.938843 152.472968 
L 269.112397 167.75252 
L 276.28595 167.75252 
L 283.459504 167.75252 
L 290.633058 167.75252 
L 297.806612 167.75252 
L 304.980165 167.75252 
L 312.153719 181.378408 
L 319.327273 181.378408 
L 326.500826 181.378408 
L 333.67438 181.378408 
L 340.847934 181.378408 
L 348.021488 181.378408 
L 355.195041 181.378408 
L 362.368595 181.495822 
L 369.542149 181.495822 
L 376.715702 181.495822 
L 383.889256 181.495822 
L 391.06281 181.495822 
L 398.236364 181.495822 
L 405.409917 181.495822 
L 412.583471 181.495822 
L 419.757025 181.495822 
L 426.930579 181.495822 
L 434.104132 181.495822 
L 441.277686 181.495822 
L 448.45124 181.495822 
L 455.624793 181.495822 
L 462.798347 181.495822 
L 469.971901 181.495822 
L 477.145455 181.495822 
L 484.319008 181.495822 
L 491.492562 181.495822 
L 498.666116 181.495822 
L 505.839669 181.495822 
L 513.013223 181.495822 
L 520.186777 181.495822 
L 527.360331 181.495822 
L 534.533884 181.495822 
L 541.707438 181.495822 
L 548.880992 181.495822 
L 556.054545 181.495822 
L 563.228099 181.495822 
L 570.401653 181.495822 
L 577.575207 181.495822 
L 584.74876 181.495822 
L 591.922314 181.495822 
L 599.095868 181.587273 
L 606.269421 181.587273 
L 613.442975 181.587273 
L 620.616529 181.587273 
L 627.790083 181.587273 
L 634.963636 181.587273 
L 642.13719 181.587273 
L 649.310744 181.587273 
L 656.484298 181.587273 
L 663.657851 181.587273 
L 670.831405 181.587273 
L 678.004959 181.587273 
L 685.178512 181.587273 
L 692.352066 181.587273 
L 699.52562 181.587273 
L 706.699174 181.587273 
L 713.872727 181.587273 
L 721.046281 181.587273 
L 728.219835 181.587273 
L 735.393388 181.587273 
L 742.566942 181.587273 
L 749.740496 181.587273 
L 756.91405 181.587273 
L 764.087603 181.587273 
L 771.261157 181.587273 
L 778.434711 181.587273 
L 785.608264 181.587273 
L 792.781818 181.587273 
L 799.955372 181.587273 
L 807.128926 181.587273 
L 814.302479 181.587273 
L 821.476033 181.587273 
L 828.649587 181.587273 
L 835.82314 181.587273 
L 842.996694 181.587273 
L 850.170248 181.587273 
L 857.343802 181.587273 
L 864.517355 181.587273 
L 871.690909 181.587273 
" style="fill:none;opacity:0.6;stroke:#1f77b4;stroke-linecap:square;stroke-width:6;"/>
   </g>
   <g id="line2d_28">
    <path clip-path="url(#p037523410c)" d="M 161.509091 50.025879 
L 168.682645 50.025879 
L 175.856198 50.025879 
L 183.029752 50.025879 
L 190.203306 50.025879 
L 197.37686 56.651937 
L 204.550413 60.002074 
L 211.723967 128.609101 
L 218.897521 128.609101 
L 226.071074 139.852366 
L 233.244628 139.852366 
L 240.418182 139.852366 
L 247.591736 139.852366 
L 254.765289 139.852366 
L 261.938843 139.852366 
L 269.112397 167.75252 
L 276.28595 167.75252 
L 283.459504 167.75252 
L 290.633058 167.75252 
L 297.806612 167.75252 
L 304.980165 167.75252 
L 312.153719 170.79115 
L 319.327273 175.183346 
L 326.500826 175.183346 
L 333.67438 175.183346 
L 340.847934 175.183346 
L 348.021488 175.183346 
L 355.195041 175.183346 
L 362.368595 175.183346 
L 369.542149 177.33552 
L 376.715702 180.112764 
L 383.889256 180.29483 
L 391.06281 180.29483 
L 398.236364 180.29483 
L 405.409917 180.29483 
L 412.583471 180.29483 
L 419.757025 180.565429 
L 426.930579 180.565429 
L 434.104132 180.565429 
L 441.277686 180.565429 
L 448.45124 180.565429 
L 455.624793 180.565429 
L 462.798347 180.565429 
L 469.971901 180.565429 
L 477.145455 180.565429 
L 484.319008 180.565429 
L 491.492562 180.565429 
L 498.666116 180.565429 
L 505.839669 180.565429 
L 513.013223 180.804205 
L 520.186777 180.804205 
L 527.360331 180.804205 
L 534.533884 180.804205 
L 541.707438 180.804205 
L 548.880992 180.804205 
L 556.054545 180.808786 
L 563.228099 180.808786 
L 570.401653 180.808786 
L 577.575207 180.808786 
L 584.74876 180.808786 
L 591.922314 180.808786 
L 599.095868 180.808786 
L 606.269421 180.808786 
L 613.442975 180.808786 
L 620.616529 180.808786 
L 627.790083 180.808786 
L 634.963636 180.808786 
L 642.13719 180.808786 
L 649.310744 180.808786 
L 656.484298 180.808786 
L 663.657851 180.808786 
L 670.831405 180.808786 
L 678.004959 180.808786 
L 685.178512 180.808786 
L 692.352066 180.808786 
L 699.52562 180.808786 
L 706.699174 180.808786 
L 713.872727 180.808786 
L 721.046281 180.808786 
L 728.219835 180.808786 
L 735.393388 180.808786 
L 742.566942 180.808786 
L 749.740496 180.943452 
L 756.91405 181.400429 
L 764.087603 181.400429 
L 771.261157 181.400429 
L 778.434711 181.400429 
L 785.608264 181.400429 
L 792.781818 181.400429 
L 799.955372 181.400429 
L 807.128926 181.400429 
L 814.302479 181.400429 
L 821.476033 181.400429 
L 828.649587 181.400429 
L 835.82314 181.400429 
L 842.996694 181.400429 
L 850.170248 181.400429 
L 857.343802 181.400429 
L 864.517355 181.400429 
L 871.690909 181.400429 
" style="fill:none;stroke:#ff7f0e;stroke-linecap:square;stroke-width:1.5;"/>
   </g>
   <g id="line2d_29">
    <path clip-path="url(#p037523410c)" d="M 161.509091 95.756076 
L 168.682645 95.756076 
L 175.856198 95.756076 
L 183.029752 95.756076 
L 190.203306 115.015983 
L 197.37686 115.015983 
L 204.550413 115.015983 
L 211.723967 115.015983 
L 218.897521 115.015983 
L 226.071074 115.015983 
L 233.244628 115.015983 
L 240.418182 115.015983 
L 247.591736 115.015983 
L 254.765289 117.934313 
L 261.938843 117.934313 
L 269.112397 117.934313 
L 276.28595 117.934313 
L 283.459504 117.934313 
L 290.633058 117.934313 
L 297.806612 117.934313 
L 304.980165 117.934313 
L 312.153719 117.934313 
L 319.327273 117.934313 
L 326.500826 118.680477 
L 333.67438 120.041427 
L 340.847934 120.041427 
L 348.021488 120.041427 
L 355.195041 120.041427 
L 362.368595 120.041427 
L 369.542149 120.041427 
L 376.715702 120.041427 
L 383.889256 120.041427 
L 391.06281 120.041427 
L 398.236364 120.041427 
L 405.409917 120.041427 
L 412.583471 120.041427 
L 419.757025 120.041427 
L 426.930579 120.041427 
L 434.104132 120.041427 
L 441.277686 120.041427 
L 448.45124 120.041427 
L 455.624793 120.041427 
L 462.798347 120.041427 
L 469.971901 120.041427 
L 477.145455 120.041427 
L 484.319008 120.041427 
L 491.492562 120.041427 
L 498.666116 120.041427 
L 505.839669 120.041427 
L 513.013223 120.041427 
L 520.186777 120.041427 
L 527.360331 120.041427 
L 534.533884 120.041427 
L 541.707438 120.041427 
L 548.880992 120.041427 
L 556.054545 120.041427 
L 563.228099 120.041427 
L 570.401653 120.041427 
L 577.575207 120.041427 
L 584.74876 120.041427 
L 591.922314 120.041427 
L 599.095868 120.041427 
L 606.269421 120.041427 
L 613.442975 120.041427 
L 620.616529 120.041427 
L 627.790083 120.041427 
L 634.963636 120.041427 
L 642.13719 128.15374 
L 649.310744 167.679056 
L 656.484298 180.616656 
L 663.657851 180.616656 
L 670.831405 180.616656 
L 678.004959 180.616656 
L 685.178512 180.616656 
L 692.352066 180.986933 
L 699.52562 180.986933 
L 706.699174 180.986933 
L 713.872727 180.986933 
L 721.046281 180.986933 
L 728.219835 181.025102 
L 735.393388 181.49478 
L 742.566942 181.49478 
L 749.740496 181.49478 
L 756.91405 181.49478 
L 764.087603 181.49478 
L 771.261157 181.49478 
L 778.434711 181.49478 
L 785.608264 181.49478 
L 792.781818 181.49478 
L 799.955372 181.49478 
L 807.128926 181.49478 
L 814.302479 181.49478 
L 821.476033 181.49478 
L 828.649587 181.49478 
L 835.82314 181.49478 
L 842.996694 181.49478 
L 850.170248 181.49478 
L 857.343802 181.49478 
L 864.517355 181.49478 
L 871.690909 181.49478 
" style="fill:none;stroke:#2ca02c;stroke-linecap:square;stroke-width:1.5;"/>
   </g>
   <g id="line2d_30">
    <path clip-path="url(#p037523410c)" d="M 161.509091 125.706451 
L 168.682645 125.706451 
L 175.856198 125.706451 
L 183.029752 125.706451 
L 190.203306 125.706451 
L 197.37686 125.706451 
L 204.550413 125.706451 
L 211.723967 125.706451 
L 218.897521 125.706451 
L 226.071074 125.706451 
L 233.244628 125.706451 
L 240.418182 125.706451 
L 247.591736 125.706451 
L 254.765289 125.706451 
L 261.938843 125.706451 
L 269.112397 125.706451 
L 276.28595 125.706451 
L 283.459504 125.706451 
L 290.633058 125.706451 
L 297.806612 125.706451 
L 304.980165 125.706451 
L 312.153719 125.706451 
L 319.327273 125.706451 
L 326.500826 125.706451 
L 333.67438 125.706451 
L 340.847934 125.706451 
L 348.021488 125.706451 
L 355.195041 125.706451 
L 362.368595 125.706451 
L 369.542149 125.706451 
L 376.715702 125.706451 
L 383.889256 125.706451 
L 391.06281 125.706451 
L 398.236364 125.706451 
L 405.409917 125.706451 
L 412.583471 125.706451 
L 419.757025 125.706451 
L 426.930579 125.706451 
L 434.104132 125.706451 
L 441.277686 125.706451 
L 448.45124 125.706451 
L 455.624793 125.706451 
L 462.798347 125.706451 
L 469.971901 125.706451 
L 477.145455 125.706451 
L 484.319008 125.706451 
L 491.492562 125.706451 
L 498.666116 125.706451 
L 505.839669 125.706451 
L 513.013223 125.706451 
L 520.186777 125.706451 
L 527.360331 125.706451 
L 534.533884 133.374323 
L 541.707438 168.213989 
L 548.880992 179.3037 
L 556.054545 179.3037 
L 563.228099 179.3037 
L 570.401653 179.3037 
L 577.575207 179.3037 
L 584.74876 179.3037 
L 591.922314 179.3037 
L 599.095868 181.078682 
L 606.269421 181.486007 
L 613.442975 181.486007 
L 620.616529 181.486007 
L 627.790083 181.486007 
L 634.963636 181.486007 
L 642.13719 181.486007 
L 649.310744 181.486007 
L 656.484298 181.486007 
L 663.657851 181.486007 
L 670.831405 181.486007 
L 678.004959 181.486007 
L 685.178512 181.486007 
L 692.352066 181.486007 
L 699.52562 181.486007 
L 706.699174 181.486007 
L 713.872727 181.486007 
L 721.046281 181.486007 
L 728.219835 181.486007 
L 735.393388 181.486007 
L 742.566942 181.486007 
L 749.740496 181.486007 
L 756.91405 181.486007 
L 764.087603 181.486007 
L 771.261157 181.486007 
L 778.434711 181.486007 
L 785.608264 181.486007 
L 792.781818 181.486007 
L 799.955372 181.486007 
L 807.128926 181.486007 
L 814.302479 181.486007 
L 821.476033 181.486007 
L 828.649587 181.486007 
L 835.82314 181.486007 
L 842.996694 181.486007 
L 850.170248 181.486007 
L 857.343802 181.486007 
L 864.517355 181.486007 
L 871.690909 181.486007 
" style="fill:none;stroke:#d62728;stroke-linecap:square;stroke-width:1.5;"/>
   </g>
   <g id="line2d_31">
    <path clip-path="url(#p037523410c)" d="M 161.509091 122.05936 
L 168.682645 122.05936 
L 175.856198 122.05936 
L 183.029752 122.05936 
L 190.203306 122.05936 
L 197.37686 122.05936 
L 204.550413 122.05936 
L 211.723967 122.05936 
L 218.897521 122.05936 
L 226.071074 123.107775 
L 233.244628 134.243541 
L 240.418182 141.519844 
L 247.591736 141.983409 
L 254.765289 141.983409 
L 261.938843 141.983409 
L 269.112397 141.983409 
L 276.28595 141.983409 
L 283.459504 141.983409 
L 290.633058 141.983409 
L 297.806612 141.983409 
L 304.980165 141.983409 
L 312.153719 141.983409 
L 319.327273 141.983409 
L 326.500826 141.983409 
L 333.67438 141.983409 
L 340.847934 141.983409 
L 348.021488 141.983409 
L 355.195041 141.983409 
L 362.368595 141.983409 
L 369.542149 141.983409 
L 376.715702 141.983409 
L 383.889256 141.983409 
L 391.06281 141.983409 
L 398.236364 141.983409 
L 405.409917 141.983409 
L 412.583471 141.983409 
L 419.757025 141.983409 
L 426.930579 141.983409 
L 434.104132 141.983409 
L 441.277686 141.983409 
L 448.45124 143.762358 
L 455.624793 149.86835 
L 462.798347 149.86835 
L 469.971901 149.86835 
L 477.145455 149.86835 
L 484.319008 149.86835 
L 491.492562 149.86835 
L 498.666116 149.86835 
L 505.839669 149.86835 
L 513.013223 149.86835 
L 520.186777 149.86835 
L 527.360331 149.86835 
L 534.533884 149.86835 
L 541.707438 149.86835 
L 548.880992 149.86835 
L 556.054545 149.86835 
L 563.228099 149.86835 
L 570.401653 149.86835 
L 577.575207 173.103836 
L 584.74876 180.761963 
L 591.922314 180.761963 
L 599.095868 180.761963 
L 606.269421 180.761963 
L 613.442975 180.761963 
L 620.616529 180.761963 
L 627.790083 180.761963 
L 634.963636 180.761963 
L 642.13719 180.761963 
L 649.310744 180.761963 
L 656.484298 180.761963 
L 663.657851 180.811144 
L 670.831405 181.039139 
L 678.004959 181.039139 
L 685.178512 181.039139 
L 692.352066 181.039139 
L 699.52562 181.039139 
L 706.699174 181.039139 
L 713.872727 181.039139 
L 721.046281 181.039139 
L 728.219835 181.039139 
L 735.393388 181.039139 
L 742.566942 181.039139 
L 749.740496 181.039139 
L 756.91405 181.039139 
L 764.087603 181.039139 
L 771.261157 181.039139 
L 778.434711 181.039139 
L 785.608264 181.039139 
L 792.781818 181.039139 
L 799.955372 181.393437 
L 807.128926 181.393437 
L 814.302479 181.393437 
L 821.476033 181.393437 
L 828.649587 181.393437 
L 835.82314 181.393437 
L 842.996694 181.393437 
L 850.170248 181.393437 
L 857.343802 181.393437 
L 864.517355 181.393437 
L 871.690909 181.393437 
" style="fill:none;stroke:#9467bd;stroke-linecap:square;stroke-width:1.5;"/>
   </g>
   <g id="line2d_32">
    <path clip-path="url(#p037523410c)" d="M 161.509091 131.552402 
L 168.682645 131.552402 
L 175.856198 131.552402 
L 183.029752 131.552402 
L 190.203306 131.552402 
L 197.37686 131.552402 
L 204.550413 131.552402 
L 211.723967 142.801281 
L 218.897521 152.472968 
L 226.071074 152.472968 
L 233.244628 152.472968 
L 240.418182 152.472968 
L 247.591736 152.472968 
L 254.765289 152.472968 
L 261.938843 152.472968 
L 269.112397 152.472968 
L 276.28595 152.472968 
L 283.459504 152.472968 
L 290.633058 152.472968 
L 297.806612 152.472968 
L 304.980165 166.571698 
L 312.153719 181.378408 
L 319.327273 181.378408 
L 326.500826 181.378408 
L 333.67438 181.378408 
L 340.847934 181.378408 
L 348.021488 181.378408 
L 355.195041 181.378408 
L 362.368595 181.495822 
L 369.542149 181.495822 
L 376.715702 181.495822 
L 383.889256 181.495822 
L 391.06281 181.495822 
L 398.236364 181.495822 
L 405.409917 181.495822 
L 412.583471 181.495822 
L 419.757025 181.495822 
L 426.930579 181.495822 
L 434.104132 181.495822 
L 441.277686 181.495822 
L 448.45124 181.495822 
L 455.624793 181.495822 
L 462.798347 181.495822 
L 469.971901 181.495822 
L 477.145455 181.495822 
L 484.319008 181.495822 
L 491.492562 181.495822 
L 498.666116 181.495822 
L 505.839669 181.495822 
L 513.013223 181.495822 
L 520.186777 181.495822 
L 527.360331 181.495822 
L 534.533884 181.495822 
L 541.707438 181.495822 
L 548.880992 181.495822 
L 556.054545 181.495822 
L 563.228099 181.495822 
L 570.401653 181.495822 
L 577.575207 181.495822 
L 584.74876 181.495822 
L 591.922314 181.495822 
L 599.095868 181.587273 
L 606.269421 181.587273 
L 613.442975 181.587273 
L 620.616529 181.587273 
L 627.790083 181.587273 
L 634.963636 181.587273 
L 642.13719 181.587273 
L 649.310744 181.587273 
L 656.484298 181.587273 
L 663.657851 181.587273 
L 670.831405 181.587273 
L 678.004959 181.587273 
L 685.178512 181.587273 
L 692.352066 181.587273 
L 699.52562 181.587273 
L 706.699174 181.587273 
L 713.872727 181.587273 
L 721.046281 181.587273 
L 728.219835 181.587273 
L 735.393388 181.587273 
L 742.566942 181.587273 
L 749.740496 181.587273 
L 756.91405 181.587273 
L 764.087603 181.587273 
L 771.261157 181.587273 
L 778.434711 181.587273 
L 785.608264 181.587273 
L 792.781818 181.587273 
L 799.955372 181.587273 
L 807.128926 181.587273 
L 814.302479 181.587273 
L 821.476033 181.587273 
L 828.649587 181.587273 
L 835.82314 181.587273 
L 842.996694 181.587273 
L 850.170248 181.587273 
L 857.343802 181.587273 
L 864.517355 181.587273 
L 871.690909 181.587273 
" style="fill:none;stroke:#8c564b;stroke-linecap:square;stroke-width:1.5;"/>
   </g>
   <g id="line2d_33">
    <path clip-path="url(#p037523410c)" d="M 161.509091 46.906888 
L 168.682645 39.996814 
L 175.856198 41.473458 
L 183.029752 41.298954 
L 190.203306 47.467503 
L 197.37686 56.651937 
L 204.550413 60.002074 
L 211.723967 128.609101 
L 218.897521 99.986207 
L 226.071074 139.852366 
L 233.244628 87.113949 
L 240.418182 40.304498 
L 247.591736 40.304498 
L 254.765289 46.895639 
L 261.938843 91.801987 
L 269.112397 167.75252 
L 276.28595 132.215387 
L 283.459504 91.239706 
L 290.633058 96.875525 
L 297.806612 102.801854 
L 304.980165 124.977588 
L 312.153719 170.79115 
L 319.327273 175.183346 
L 326.500826 143.870157 
L 333.67438 127.618076 
L 340.847934 133.960155 
L 348.021488 140.60349 
L 355.195041 154.070328 
L 362.368595 169.436423 
L 369.542149 177.33552 
L 376.715702 180.112764 
L 383.889256 180.29483 
L 391.06281 175.411202 
L 398.236364 174.642037 
L 405.409917 176.719622 
L 412.583471 176.772448 
L 419.757025 180.565429 
L 426.930579 177.378234 
L 434.104132 167.114846 
L 441.277686 154.963967 
L 448.45124 142.358065 
L 455.624793 136.528675 
L 462.798347 160.873549 
L 469.971901 180.006333 
L 477.145455 178.954239 
L 484.319008 172.800745 
L 491.492562 159.101013 
L 498.666116 157.230377 
L 505.839669 172.135534 
L 513.013223 180.804205 
L 520.186777 170.273567 
L 527.360331 164.675726 
L 534.533884 166.609571 
L 541.707438 172.516679 
L 548.880992 179.5852 
L 556.054545 180.808786 
L 563.228099 178.732372 
L 570.401653 178.393476 
L 577.575207 176.275566 
L 584.74876 172.395714 
L 591.922314 171.198828 
L 599.095868 171.278798 
L 606.269421 173.687625 
L 613.442975 176.374421 
L 620.616529 180.147326 
L 627.790083 180.466016 
L 634.963636 177.463161 
L 642.13719 177.214362 
L 649.310744 178.535498 
L 656.484298 180.458723 
L 663.657851 178.984672 
L 670.831405 174.800174 
L 678.004959 168.108185 
L 685.178512 166.338736 
L 692.352066 165.796021 
L 699.52562 166.373291 
L 706.699174 174.231449 
L 713.872727 176.641913 
L 721.046281 175.384561 
L 728.219835 170.009015 
L 735.393388 175.561377 
L 742.566942 180.553696 
L 749.740496 180.943452 
L 756.91405 181.400429 
L 764.087603 181.1815 
L 771.261157 180.574502 
L 778.434711 180.38284 
L 785.608264 178.855058 
L 792.781818 177.859878 
L 799.955372 178.32102 
L 807.128926 178.036692 
L 814.302479 178.728932 
L 821.476033 178.801934 
L 828.649587 177.228943 
L 835.82314 179.026575 
L 842.996694 179.949211 
L 850.170248 180.290305 
L 857.343802 180.420301 
L 864.517355 179.440683 
L 871.690909 179.606622 
" style="fill:none;opacity:0.8;stroke:#e377c2;stroke-dasharray:5.55,2.4;stroke-dashoffset:0;stroke-width:1.5;"/>
   </g>
   <g id="line2d_34">
    <path clip-path="url(#p037523410c)" d="M 161.509091 95.756076 
L 168.682645 90.395546 
L 175.856198 91.733126 
L 183.029752 84.177763 
L 190.203306 115.015983 
L 197.37686 114.93276 
L 204.550413 89.475647 
L 211.723967 65.164755 
L 218.897521 54.986758 
L 226.071074 52.356959 
L 233.244628 71.965114 
L 240.418182 91.576331 
L 247.591736 93.105534 
L 254.765289 117.934313 
L 261.938843 115.679925 
L 269.112397 92.426854 
L 276.28595 73.879046 
L 283.459504 84.911013 
L 290.633058 100.078192 
L 297.806612 90.697646 
L 304.980165 86.922559 
L 312.153719 78.866642 
L 319.327273 96.672292 
L 326.500826 118.680477 
L 333.67438 120.041427 
L 340.847934 113.176534 
L 348.021488 99.071656 
L 355.195041 102.419857 
L 362.368595 94.382363 
L 369.542149 65.444033 
L 376.715702 33.332727 
L 383.889256 54.095975 
L 391.06281 43.685205 
L 398.236364 68.928859 
L 405.409917 66.053234 
L 412.583471 61.641236 
L 419.757025 43.66295 
L 426.930579 35.303483 
L 434.104132 60.261292 
L 441.277686 85.151314 
L 448.45124 52.245236 
L 455.624793 51.176677 
L 462.798347 44.907084 
L 469.971901 81.210119 
L 477.145455 83.66044 
L 484.319008 91.852316 
L 491.492562 67.653657 
L 498.666116 53.214451 
L 505.839669 51.005284 
L 513.013223 63.279082 
L 520.186777 49.184269 
L 527.360331 56.306916 
L 534.533884 87.797952 
L 541.707438 102.799473 
L 548.880992 91.19494 
L 556.054545 103.508046 
L 563.228099 103.692518 
L 570.401653 98.899901 
L 577.575207 67.641117 
L 584.74876 56.509151 
L 591.922314 65.595624 
L 599.095868 72.460222 
L 606.269421 73.437469 
L 613.442975 62.563819 
L 620.616529 50.562826 
L 627.790083 54.22318 
L 634.963636 78.187805 
L 642.13719 128.15374 
L 649.310744 167.679056 
L 656.484298 180.616656 
L 663.657851 180.529709 
L 670.831405 178.288578 
L 678.004959 178.328926 
L 685.178512 180.38224 
L 692.352066 180.986933 
L 699.52562 178.349274 
L 706.699174 176.693825 
L 713.872727 177.307093 
L 721.046281 179.983729 
L 728.219835 181.025102 
L 735.393388 181.49478 
L 742.566942 181.269776 
L 749.740496 181.141542 
L 756.91405 181.379671 
L 764.087603 181.18649 
L 771.261157 180.852645 
L 778.434711 180.701218 
L 785.608264 180.322487 
L 792.781818 181.055293 
L 799.955372 181.199663 
L 807.128926 180.706069 
L 814.302479 179.170558 
L 821.476033 179.614618 
L 828.649587 179.762379 
L 835.82314 180.132779 
L 842.996694 180.147876 
L 850.170248 180.975834 
L 857.343802 181.298721 
L 864.517355 181.427821 
L 871.690909 181.482618 
" style="fill:none;opacity:0.8;stroke:#7f7f7f;stroke-dasharray:5.55,2.4;stroke-dashoffset:0;stroke-width:1.5;"/>
   </g>
   <g id="line2d_35">
    <path clip-path="url(#p037523410c)" d="M 161.509091 125.706451 
L 168.682645 121.849064 
L 175.856198 118.519068 
L 183.029752 116.629735 
L 190.203306 116.653654 
L 197.37686 91.397415 
L 204.550413 79.264305 
L 211.723967 63.465714 
L 218.897521 65.378563 
L 226.071074 103.728813 
L 233.244628 70.703392 
L 240.418182 92.505045 
L 247.591736 86.643835 
L 254.765289 56.586364 
L 261.938843 82.765291 
L 269.112397 43.76431 
L 276.28595 117.183035 
L 283.459504 67.15244 
L 290.633058 69.536006 
L 297.806612 71.313876 
L 304.980165 77.416049 
L 312.153719 95.480979 
L 319.327273 83.108499 
L 326.500826 111.057809 
L 333.67438 105.400045 
L 340.847934 112.547812 
L 348.021488 116.276143 
L 355.195041 74.029652 
L 362.368595 91.523762 
L 369.542149 103.381858 
L 376.715702 78.388751 
L 383.889256 73.355977 
L 391.06281 99.243013 
L 398.236364 92.563376 
L 405.409917 88.815916 
L 412.583471 79.683087 
L 419.757025 78.009684 
L 426.930579 97.127821 
L 434.104132 81.700266 
L 441.277686 70.589229 
L 448.45124 99.779335 
L 455.624793 52.807688 
L 462.798347 71.221409 
L 469.971901 60.155292 
L 477.145455 97.031305 
L 484.319008 64.700682 
L 491.492562 67.910533 
L 498.666116 74.153351 
L 505.839669 104.276163 
L 513.013223 69.660849 
L 520.186777 81.848687 
L 527.360331 105.096811 
L 534.533884 133.374323 
L 541.707438 168.213989 
L 548.880992 179.3037 
L 556.054545 162.020381 
L 563.228099 159.936 
L 570.401653 155.660202 
L 577.575207 163.287714 
L 584.74876 173.313998 
L 591.922314 177.972052 
L 599.095868 181.078682 
L 606.269421 181.486007 
L 613.442975 179.666245 
L 620.616529 175.453237 
L 627.790083 170.629952 
L 634.963636 174.426379 
L 642.13719 180.925333 
L 649.310744 180.082436 
L 656.484298 176.608651 
L 663.657851 172.974181 
L 670.831405 175.289693 
L 678.004959 173.992689 
L 685.178512 175.372528 
L 692.352066 176.797817 
L 699.52562 175.262108 
L 706.699174 173.7445 
L 713.872727 173.118475 
L 721.046281 177.0372 
L 728.219835 178.798562 
L 735.393388 176.686412 
L 742.566942 177.474789 
L 749.740496 179.261947 
L 756.91405 181.397909 
L 764.087603 180.59236 
L 771.261157 175.393202 
L 778.434711 173.529731 
L 785.608264 174.588773 
L 792.781818 175.485308 
L 799.955372 176.059682 
L 807.128926 179.208174 
L 814.302479 180.597855 
L 821.476033 180.286047 
L 828.649587 178.994494 
L 835.82314 179.08321 
L 842.996694 178.376792 
L 850.170248 179.92307 
L 857.343802 181.242166 
L 864.517355 179.354872 
L 871.690909 175.804918 
" style="fill:none;opacity:0.8;stroke:#bcbd22;stroke-dasharray:5.55,2.4;stroke-dashoffset:0;stroke-width:1.5;"/>
   </g>
   <g id="line2d_36">
    <path clip-path="url(#p037523410c)" d="M 161.509091 116.217961 
L 168.682645 97.785859 
L 175.856198 80.752854 
L 183.029752 73.594938 
L 190.203306 56.218907 
L 197.37686 61.73843 
L 204.550413 61.135713 
L 211.723967 64.644972 
L 218.897521 95.493038 
L 226.071074 123.107775 
L 233.244628 134.243541 
L 240.418182 141.519844 
L 247.591736 141.983409 
L 254.765289 140.825545 
L 261.938843 122.792322 
L 269.112397 128.717124 
L 276.28595 126.101715 
L 283.459504 128.112648 
L 290.633058 127.56756 
L 297.806612 126.183662 
L 304.980165 123.313603 
L 312.153719 126.128874 
L 319.327273 128.082708 
L 326.500826 133.997678 
L 333.67438 129.996521 
L 340.847934 130.424467 
L 348.021488 125.52024 
L 355.195041 115.415142 
L 362.368595 123.064501 
L 369.542149 129.7557 
L 376.715702 133.447005 
L 383.889256 129.582609 
L 391.06281 130.339219 
L 398.236364 124.512211 
L 405.409917 119.465773 
L 412.583471 121.05267 
L 419.757025 113.662996 
L 426.930579 128.242137 
L 434.104132 121.907441 
L 441.277686 119.353625 
L 448.45124 143.762358 
L 455.624793 149.86835 
L 462.798347 110.77493 
L 469.971901 83.038913 
L 477.145455 100.984486 
L 484.319008 116.689154 
L 491.492562 107.134656 
L 498.666116 106.919667 
L 505.839669 107.375075 
L 513.013223 109.257927 
L 520.186777 106.001789 
L 527.360331 96.924539 
L 534.533884 103.54033 
L 541.707438 120.965211 
L 548.880992 106.628003 
L 556.054545 95.582675 
L 563.228099 106.63533 
L 570.401653 145.8988 
L 577.575207 173.103836 
L 584.74876 180.761963 
L 591.922314 168.992541 
L 599.095868 162.731734 
L 606.269421 160.168946 
L 613.442975 164.794814 
L 620.616529 175.461114 
L 627.790083 179.326593 
L 634.963636 172.617543 
L 642.13719 169.112842 
L 649.310744 172.368494 
L 656.484298 176.551502 
L 663.657851 180.811144 
L 670.831405 181.039139 
L 678.004959 178.266406 
L 685.178512 174.166766 
L 692.352066 171.907678 
L 699.52562 173.454341 
L 706.699174 175.66422 
L 713.872727 176.17967 
L 721.046281 176.663566 
L 728.219835 173.159398 
L 735.393388 172.926154 
L 742.566942 175.519206 
L 749.740496 179.36596 
L 756.91405 179.80943 
L 764.087603 180.724018 
L 771.261157 179.462067 
L 778.434711 179.850172 
L 785.608264 180.799895 
L 792.781818 180.884276 
L 799.955372 181.393437 
L 807.128926 181.169494 
L 814.302479 180.450391 
L 821.476033 179.828861 
L 828.649587 179.339047 
L 835.82314 178.857116 
L 842.996694 179.645922 
L 850.170248 180.270128 
L 857.343802 181.290932 
L 864.517355 181.217352 
L 871.690909 180.477658 
" style="fill:none;opacity:0.8;stroke:#17becf;stroke-dasharray:5.55,2.4;stroke-dashoffset:0;stroke-width:1.5;"/>
   </g>
   <g id="line2d_37">
    <path clip-path="url(#p037523410c)" d="M 161.509091 131.552402 
L 168.682645 130.03906 
L 175.856198 115.875143 
L 183.029752 109.352655 
L 190.203306 98.607383 
L 197.37686 99.842157 
L 204.550413 110.733104 
L 211.723967 142.801281 
L 218.897521 152.472968 
L 226.071074 96.558885 
L 233.244628 44.948003 
L 240.418182 50.952604 
L 247.591736 61.080681 
L 254.765289 102.512877 
L 261.938843 112.648312 
L 269.112397 75.433645 
L 276.28595 87.734109 
L 283.459504 93.741979 
L 290.633058 114.595807 
L 297.806612 132.370293 
L 304.980165 166.571698 
L 312.153719 181.378408 
L 319.327273 178.450542 
L 326.500826 162.429118 
L 333.67438 157.472932 
L 340.847934 161.291501 
L 348.021488 160.118229 
L 355.195041 174.586261 
L 362.368595 181.495822 
L 369.542149 178.498398 
L 376.715702 178.657167 
L 383.889256 175.538429 
L 391.06281 179.693457 
L 398.236364 175.792069 
L 405.409917 153.795835 
L 412.583471 157.874799 
L 419.757025 166.438734 
L 426.930579 177.081339 
L 434.104132 178.733371 
L 441.277686 176.278437 
L 448.45124 173.844939 
L 455.624793 179.702812 
L 462.798347 181.356509 
L 469.971901 179.188935 
L 477.145455 178.518291 
L 484.319008 178.561017 
L 491.492562 173.053403 
L 498.666116 169.995022 
L 505.839669 162.714888 
L 513.013223 165.694147 
L 520.186777 170.887287 
L 527.360331 174.386191 
L 534.533884 177.692173 
L 541.707438 176.304182 
L 548.880992 176.3915 
L 556.054545 175.350853 
L 563.228099 176.929507 
L 570.401653 177.657155 
L 577.575207 179.693315 
L 584.74876 181.463412 
L 591.922314 181.424216 
L 599.095868 181.587273 
L 606.269421 180.952592 
L 613.442975 180.034667 
L 620.616529 180.85466 
L 627.790083 179.298615 
L 634.963636 177.982953 
L 642.13719 175.085089 
L 649.310744 173.906668 
L 656.484298 173.000051 
L 663.657851 178.504803 
L 670.831405 180.560435 
L 678.004959 181.129192 
L 685.178512 181.01126 
L 692.352066 181.259811 
L 699.52562 181.342226 
L 706.699174 181.398437 
L 713.872727 181.559748 
L 721.046281 181.435376 
L 728.219835 181.266185 
L 735.393388 181.025081 
L 742.566942 181.017576 
L 749.740496 181.049884 
L 756.91405 181.334311 
L 764.087603 181.108377 
L 771.261157 181.369153 
L 778.434711 181.499726 
L 785.608264 181.223284 
L 792.781818 180.822455 
L 799.955372 180.470842 
L 807.128926 180.345813 
L 814.302479 180.040477 
L 821.476033 180.742501 
L 828.649587 181.265611 
L 835.82314 181.388034 
L 842.996694 181.386143 
L 850.170248 179.677704 
L 857.343802 179.610926 
L 864.517355 181.286137 
L 871.690909 180.991362 
" style="fill:none;opacity:0.8;stroke:#1f77b4;stroke-dasharray:5.55,2.4;stroke-dashoffset:0;stroke-width:1.5;"/>
   </g>
   <g id="patch_3">
    <path d="M 126 189 
L 126 25.92 
" style="fill:none;stroke:#000000;stroke-linecap:square;stroke-linejoin:miter;stroke-width:0.8;"/>
   </g>
   <g id="patch_4">
    <path d="M 907.2 189 
L 907.2 25.92 
" style="fill:none;stroke:#000000;stroke-linecap:square;stroke-linejoin:miter;stroke-width:0.8;"/>
   </g>
   <g id="patch_5">
    <path d="M 126 189 
L 907.2 189 
" style="fill:none;stroke:#000000;stroke-linecap:square;stroke-linejoin:miter;stroke-width:0.8;"/>
   </g>
   <g id="patch_6">
    <path d="M 126 25.92 
L 907.2 25.92 
" style="fill:none;stroke:#000000;stroke-linecap:square;stroke-linejoin:miter;stroke-width:0.8;"/>
   </g>
   <g id="text_16">
    <!-- Schewefel's function -->
    <defs>
     <path d="M 53.515625 70.515625 
L 53.515625 60.890625 
Q 47.90625 63.578125 42.921875 64.890625 
Q 37.9375 66.21875 33.296875 66.21875 
Q 25.25 66.21875 20.875 63.09375 
Q 16.5 59.96875 16.5 54.203125 
Q 16.5 49.359375 19.40625 46.890625 
Q 22.3125 44.4375 30.421875 42.921875 
L 36.375 41.703125 
Q 47.40625 39.59375 52.65625 34.296875 
Q 57.90625 29 57.90625 20.125 
Q 57.90625 9.515625 50.796875 4.046875 
Q 43.703125 -1.421875 29.984375 -1.421875 
Q 24.8125 -1.421875 18.96875 -0.25 
Q 13.140625 0.921875 6.890625 3.21875 
L 6.890625 13.375 
Q 12.890625 10.015625 18.65625 8.296875 
Q 24.421875 6.59375 29.984375 6.59375 
Q 38.421875 6.59375 43.015625 9.90625 
Q 47.609375 13.234375 47.609375 19.390625 
Q 47.609375 24.75 44.3125 27.78125 
Q 41.015625 30.8125 33.5 32.328125 
L 27.484375 33.5 
Q 16.453125 35.6875 11.515625 40.375 
Q 6.59375 45.0625 6.59375 53.421875 
Q 6.59375 63.09375 13.40625 68.65625 
Q 20.21875 74.21875 32.171875 74.21875 
Q 37.3125 74.21875 42.625 73.28125 
Q 47.953125 72.359375 53.515625 70.515625 
z
" id="DejaVuSans-53"/>
     <path d="M 48.78125 52.59375 
L 48.78125 44.1875 
Q 44.96875 46.296875 41.140625 47.34375 
Q 37.3125 48.390625 33.40625 48.390625 
Q 24.65625 48.390625 19.8125 42.84375 
Q 14.984375 37.3125 14.984375 27.296875 
Q 14.984375 17.28125 19.8125 11.734375 
Q 24.65625 6.203125 33.40625 6.203125 
Q 37.3125 6.203125 41.140625 7.25 
Q 44.96875 8.296875 48.78125 10.40625 
L 48.78125 2.09375 
Q 45.015625 0.34375 40.984375 -0.53125 
Q 36.96875 -1.421875 32.421875 -1.421875 
Q 20.0625 -1.421875 12.78125 6.34375 
Q 5.515625 14.109375 5.515625 27.296875 
Q 5.515625 40.671875 12.859375 48.328125 
Q 20.21875 56 33.015625 56 
Q 37.15625 56 41.109375 55.140625 
Q 45.0625 54.296875 48.78125 52.59375 
z
" id="DejaVuSans-63"/>
     <path d="M 54.890625 33.015625 
L 54.890625 0 
L 45.90625 0 
L 45.90625 32.71875 
Q 45.90625 40.484375 42.875 44.328125 
Q 39.84375 48.1875 33.796875 48.1875 
Q 26.515625 48.1875 22.3125 43.546875 
Q 18.109375 38.921875 18.109375 30.90625 
L 18.109375 0 
L 9.078125 0 
L 9.078125 75.984375 
L 18.109375 75.984375 
L 18.109375 46.1875 
Q 21.34375 51.125 25.703125 53.5625 
Q 30.078125 56 35.796875 56 
Q 45.21875 56 50.046875 50.171875 
Q 54.890625 44.34375 54.890625 33.015625 
z
" id="DejaVuSans-68"/>
     <path d="M 4.203125 54.6875 
L 13.1875 54.6875 
L 24.421875 12.015625 
L 35.59375 54.6875 
L 46.1875 54.6875 
L 57.421875 12.015625 
L 68.609375 54.6875 
L 77.59375 54.6875 
L 63.28125 0 
L 52.6875 0 
L 40.921875 44.828125 
L 29.109375 0 
L 18.5 0 
z
" id="DejaVuSans-77"/>
     <path d="M 37.109375 75.984375 
L 37.109375 68.5 
L 28.515625 68.5 
Q 23.6875 68.5 21.796875 66.546875 
Q 19.921875 64.59375 19.921875 59.515625 
L 19.921875 54.6875 
L 34.71875 54.6875 
L 34.71875 47.703125 
L 19.921875 47.703125 
L 19.921875 0 
L 10.890625 0 
L 10.890625 47.703125 
L 2.296875 47.703125 
L 2.296875 54.6875 
L 10.890625 54.6875 
L 10.890625 58.5 
Q 10.890625 67.625 15.140625 71.796875 
Q 19.390625 75.984375 28.609375 75.984375 
z
" id="DejaVuSans-66"/>
     <path d="M 9.421875 75.984375 
L 18.40625 75.984375 
L 18.40625 0 
L 9.421875 0 
z
" id="DejaVuSans-6c"/>
     <path d="M 17.921875 72.90625 
L 17.921875 45.796875 
L 9.625 45.796875 
L 9.625 72.90625 
z
" id="DejaVuSans-27"/>
     <path id="DejaVuSans-20"/>
     <path d="M 8.5 21.578125 
L 8.5 54.6875 
L 17.484375 54.6875 
L 17.484375 21.921875 
Q 17.484375 14.15625 20.5 10.265625 
Q 23.53125 6.390625 29.59375 6.390625 
Q 36.859375 6.390625 41.078125 11.03125 
Q 45.3125 15.671875 45.3125 23.6875 
L 45.3125 54.6875 
L 54.296875 54.6875 
L 54.296875 0 
L 45.3125 0 
L 45.3125 8.40625 
Q 42.046875 3.421875 37.71875 1 
Q 33.40625 -1.421875 27.6875 -1.421875 
Q 18.265625 -1.421875 13.375 4.4375 
Q 8.5 10.296875 8.5 21.578125 
z
M 31.109375 56 
z
" id="DejaVuSans-75"/>
    </defs>
    <g transform="translate(454.737188 19.92)scale(0.12 -0.12)">
     <use xlink:href="#DejaVuSans-53"/>
     <use x="63.476562" xlink:href="#DejaVuSans-63"/>
     <use x="118.457031" xlink:href="#DejaVuSans-68"/>
     <use x="181.835938" xlink:href="#DejaVuSans-65"/>
     <use x="243.359375" xlink:href="#DejaVuSans-77"/>
     <use x="325.146484" xlink:href="#DejaVuSans-65"/>
     <use x="386.669922" xlink:href="#DejaVuSans-66"/>
     <use x="421.875" xlink:href="#DejaVuSans-65"/>
     <use x="483.398438" xlink:href="#DejaVuSans-6c"/>
     <use x="511.181641" xlink:href="#DejaVuSans-27"/>
     <use x="538.671875" xlink:href="#DejaVuSans-73"/>
     <use x="590.771484" xlink:href="#DejaVuSans-20"/>
     <use x="622.558594" xlink:href="#DejaVuSans-66"/>
     <use x="657.763672" xlink:href="#DejaVuSans-75"/>
     <use x="721.142578" xlink:href="#DejaVuSans-6e"/>
     <use x="784.521484" xlink:href="#DejaVuSans-63"/>
     <use x="839.501953" xlink:href="#DejaVuSans-74"/>
     <use x="878.710938" xlink:href="#DejaVuSans-69"/>
     <use x="906.494141" xlink:href="#DejaVuSans-6f"/>
     <use x="967.675781" xlink:href="#DejaVuSans-6e"/>
    </g>
   </g>
  </g>
 </g>
 <defs>
  <clipPath id="p037523410c">
   <rect height="163.08" width="781.2" x="126" y="25.92"/>
  </clipPath>
 </defs>
</svg>
